<svg width="85" height="85" viewBox="0 0 85 85" fill="none" xmlns="http://www.w3.org/2000/svg">
<circle cx="42.5" cy="42.5" r="42.5" fill="white"/>
<path d="M19.704 59V26.072H35.592C37.576 26.072 39.24 26.392 40.584 27.032C41.96 27.64 43 28.536 43.704 29.72C44.408 30.872 44.76 32.264 44.76 33.896C44.76 35.144 44.552 36.312 44.136 37.4C43.72 38.456 43.128 39.352 42.36 40.088C41.592 40.824 40.68 41.368 39.624 41.72V41.912C40.712 42.168 41.704 42.6 42.6 43.208C43.528 43.816 44.264 44.68 44.808 45.8C45.384 46.888 45.672 48.328 45.672 50.12C45.672 52.36 45.24 54.136 44.376 55.448C43.512 56.728 42.328 57.64 40.824 58.184C39.32 58.728 37.576 59 35.592 59H19.704ZM22.296 56.696H36.36C38.376 56.696 39.992 56.2 41.208 55.208C42.456 54.216 43.08 52.472 43.08 49.976C43.08 48.376 42.808 47.08 42.264 46.088C41.72 45.096 40.92 44.376 39.864 43.928C38.84 43.48 37.576 43.256 36.072 43.256H22.296V56.696ZM22.296 40.952H35.544C36.792 40.952 37.912 40.696 38.904 40.184C39.896 39.64 40.68 38.888 41.256 37.928C41.864 36.936 42.168 35.784 42.168 34.472C42.168 32.392 41.592 30.856 40.44 29.864C39.32 28.872 37.832 28.376 35.976 28.376H22.296V40.952ZM58.2698 59.576C56.0618 59.576 54.1738 59.096 52.6058 58.136C51.0698 57.176 49.8858 55.72 49.0538 53.768C48.2218 51.784 47.8058 49.32 47.8058 46.376C47.8058 43.496 48.2058 41.08 49.0058 39.128C49.8378 37.144 51.0538 35.656 52.6538 34.664C54.2538 33.672 56.2057 33.176 58.5097 33.176C60.3018 33.176 61.7898 33.416 62.9738 33.896C64.1898 34.376 65.1498 35.064 65.8538 35.96C66.5578 36.824 67.0538 37.864 67.3418 39.08C67.6618 40.264 67.8218 41.56 67.8218 42.968H65.5658C65.5658 41.144 65.3258 39.672 64.8458 38.552C64.3978 37.4 63.6458 36.568 62.5898 36.056C61.5658 35.512 60.1738 35.24 58.4138 35.24C56.9418 35.24 55.5818 35.56 54.3338 36.2C53.0858 36.84 52.0938 37.912 51.3578 39.416C50.6217 40.92 50.2537 43 50.2537 45.656V47.096C50.2537 49.56 50.5898 51.56 51.2618 53.096C51.9338 54.632 52.8778 55.752 54.0938 56.456C55.3098 57.16 56.7178 57.512 58.3178 57.512C60.1738 57.512 61.6138 57.208 62.6378 56.6C63.6938 55.96 64.4458 55.064 64.8938 53.912C65.3418 52.728 65.5658 51.352 65.5658 49.784H67.8218C67.8218 51 67.6618 52.2 67.3418 53.384C67.0538 54.536 66.5418 55.576 65.8058 56.504C65.1018 57.432 64.1258 58.184 62.8778 58.76C61.6618 59.304 60.1258 59.576 58.2698 59.576Z" fill="black"/>
</svg>
